<svg width="188" height="188" viewBox="0 0 188 188" fill="none" xmlns="http://www.w3.org/2000/svg">
<path d="M127.761 42.3001C127.719 41.779 127.542 41.2778 127.247 40.8464C126.951 40.415 126.548 40.0685 126.078 39.8414L96.0181 26.0498C95.6428 25.8772 95.2352 25.7859 94.8221 25.7819C94.409 25.7778 93.9997 25.8611 93.6211 26.0263L61.9666 39.812C61.4524 40.0564 61.0157 40.4381 60.7047 40.915C60.3936 41.3919 60.2204 41.9454 60.2041 42.5145V78.9395C60.2036 79.4881 60.3566 80.0258 60.6458 80.4919C60.9349 80.9581 61.3487 81.3341 61.8403 81.5774L92.6987 96.7789C93.113 96.9674 93.5634 97.0632 94.0185 97.0596C94.4735 97.0561 94.9224 96.9533 95.3337 96.7584L125.737 81.2073C126.213 80.9639 126.614 80.595 126.896 80.1405C127.178 79.686 127.331 79.1631 127.338 78.6281C127.308 78.3726 127.852 42.5292 127.761 42.3001ZM94.7579 31.9366L117.926 42.5703L109.025 46.8179L87.561 35.0738L94.7579 31.9366ZM80.843 37.9996C80.9411 38.0953 81.0461 38.1837 81.1573 38.2639L102.495 49.9376L93.9971 53.9972L70.2122 42.6291L80.843 37.9996ZM66.0762 47.1734L91.0625 59.1143V89.4205L66.0791 77.1124L66.0762 47.1734ZM121.486 76.7834L96.9346 89.3412V59.1143L106.199 54.6846L106.487 61.2675C106.528 62.0415 106.872 62.7682 107.446 63.2893C108.019 63.8104 108.776 64.0837 109.55 64.0496C110.324 64.0155 111.054 63.6768 111.58 63.1073C112.105 62.5377 112.384 61.7835 112.356 61.009L111.957 51.9321L121.856 47.2028L121.486 76.7834Z" fill="#296A89"/>
<path d="M36.9832 144.202C37.7622 144.202 38.5094 143.892 39.0603 143.342C39.6112 142.791 39.9207 142.043 39.9207 141.264V20.5625C39.9214 19.7837 40.2312 19.037 40.7819 18.4862C41.3326 17.9355 42.0793 17.6258 42.8582 17.625H145.113C145.891 17.6258 146.638 17.9355 147.189 18.4862C147.74 19.037 148.049 19.7837 148.05 20.5625V67.0044C148.05 67.7834 148.36 68.5306 148.91 69.0815C149.461 69.6324 150.208 69.9419 150.988 69.9419C151.767 69.9419 152.514 69.6324 153.065 69.0815C153.616 68.5306 153.925 67.7834 153.925 67.0044V20.5625C153.923 18.226 152.993 15.9859 151.341 14.3337C149.689 12.6815 147.449 11.7523 145.113 11.75H42.8582C40.5216 11.7523 38.2815 12.6815 36.6294 14.3337C34.9772 15.9859 34.048 18.226 34.0457 20.5625V141.264C34.0457 142.043 34.3551 142.791 34.906 143.342C35.4569 143.892 36.2041 144.202 36.9832 144.202ZM153.728 143.776C153.854 143.381 153.92 142.969 153.925 142.554V78.7544C153.925 77.9753 153.616 77.2281 153.065 76.6773C152.514 76.1264 151.767 75.8169 150.988 75.8169C150.208 75.8169 149.461 76.1264 148.91 76.6773C148.36 77.2281 148.05 77.9753 148.05 78.7544V139.737H128.539C126.981 139.738 125.488 140.358 124.387 141.459C123.285 142.561 122.666 144.054 122.664 145.612V170.375H42.8582C42.0793 170.374 41.3326 170.064 40.7819 169.514C40.2312 168.963 39.9214 168.216 39.9207 167.438V153.014C39.9207 152.235 39.6112 151.488 39.0603 150.937C38.5094 150.386 37.7622 150.077 36.9832 150.077C36.2041 150.077 35.4569 150.386 34.906 150.937C34.3551 151.488 34.0457 152.235 34.0457 153.014V167.438C34.048 169.774 34.9772 172.014 36.6294 173.666C38.2815 175.318 40.5216 176.248 42.8582 176.25H125.608C126.469 176.203 127.278 175.824 127.866 175.192L153.246 144.672C153.438 144.391 153.6 144.091 153.728 143.776ZM144.822 145.612L128.539 165.193V145.612H144.822Z" fill="#296A89"/>
<path d="M129.602 107.659H107.747C106.968 107.659 106.221 107.969 105.67 108.52C105.119 109.071 104.81 109.818 104.81 110.597C104.81 111.376 105.119 112.123 105.67 112.674C106.221 113.225 106.968 113.534 107.747 113.534H129.602C130.382 113.534 131.129 113.225 131.68 112.674C132.23 112.123 132.54 111.376 132.54 110.597C132.54 109.818 132.23 109.071 131.68 108.52C131.129 107.969 130.382 107.659 129.602 107.659ZM55.46 110.597C55.46 111.376 55.7695 112.123 56.3203 112.674C56.8712 113.225 57.6184 113.534 58.3975 113.534H95.9975C96.7765 113.534 97.5237 113.225 98.0746 112.674C98.6255 112.123 98.935 111.376 98.935 110.597C98.935 109.818 98.6255 109.071 98.0746 108.52C97.5237 107.969 96.7765 107.659 95.9975 107.659H58.3975C57.6184 107.659 56.8712 107.969 56.3203 108.52C55.7695 109.071 55.46 109.818 55.46 110.597ZM132.531 131.286C132.531 130.507 132.222 129.759 131.671 129.209C131.12 128.658 130.373 128.348 129.594 128.348H58.3945C57.6155 128.348 56.8683 128.658 56.3174 129.209C55.7665 129.759 55.457 130.507 55.457 131.286C55.457 132.065 55.7665 132.812 56.3174 133.363C56.8683 133.914 57.6155 134.223 58.3945 134.223H129.594C130.373 134.223 131.12 133.914 131.671 133.363C132.222 132.812 132.531 132.065 132.531 131.286ZM58.3975 149.025C57.6184 149.025 56.8712 149.335 56.3203 149.886C55.7695 150.437 55.46 151.184 55.46 151.963C55.46 152.742 55.7695 153.489 56.3203 154.04C56.8712 154.591 57.6184 154.9 58.3975 154.9H108.593C109.373 154.9 110.12 154.591 110.671 154.04C111.221 153.489 111.531 152.742 111.531 151.963C111.531 151.184 111.221 150.437 110.671 149.886C110.12 149.335 109.373 149.025 108.593 149.025H58.3975Z" fill="#296A89"/>
</svg>
