<svg width="48" height="48" viewBox="0 0 48 48" fill="none" xmlns="http://www.w3.org/2000/svg">
<g clip-path="url(#clip0_223_1936)">
<g clip-path="url(#clip1_223_1936)">
<path d="M22.9648 0C27.0677 0 30.4364 0.823848 33.0709 2.47154C35.7486 4.07588 37.8216 5.61518 39.29 7.08943C39.4628 7.26287 39.5491 7.45799 39.5491 7.67479C39.5491 7.80488 39.4844 7.97832 39.3548 8.19512C39.2684 8.36856 39.2036 8.49864 39.1604 8.58536C38.9445 8.88889 38.5774 9.43089 38.0591 10.2114C37.5841 10.9485 37.1954 11.4905 36.8931 11.8374C36.7635 12.0108 36.6123 12.206 36.4396 12.4228C36.31 12.5962 36.1804 12.7263 36.0509 12.813C35.9645 12.8997 35.8133 12.9431 35.5974 12.9431C35.511 12.9431 35.2951 12.813 34.9496 12.5528C34.6473 12.2493 34.3449 11.9892 34.0426 11.7724C32.3151 10.2547 30.6307 8.95393 28.9896 7.86992C27.3484 6.78591 25.772 6.2439 24.2604 6.2439C23.0512 6.2439 22.0578 6.52574 21.2804 7.08943C20.503 7.60976 20.1144 8.82385 20.1144 10.7317C20.1144 12.5962 20.8054 14.0488 22.1874 15.0894C23.5694 16.1301 25.4049 17.1274 27.6939 18.0813C27.9099 18.168 29.1623 18.71 31.4513 19.7073C33.7835 20.7046 35.8349 22.6125 37.6057 25.4309C39.4196 28.2493 40.3265 31.6098 40.3265 35.5122C40.3265 39.6748 38.7717 42.7967 35.6622 44.878C32.5526 46.9594 28.2554 48 22.7704 48C16.5513 48 12.5996 46.8076 10.9152 44.4228C9.23087 41.9946 8.34551 40.7371 8.25913 40.6504C8.08638 40.4336 8 40.2168 8 40C8 39.8699 8.17275 39.5881 8.51826 39.1545C9.07971 38.374 9.90029 37.4417 10.98 36.3577C11.1528 36.1843 11.3255 36.0976 11.4983 36.0976C11.7142 36.0976 11.9517 36.271 12.2109 36.6179C12.47 36.9214 12.6859 37.1599 12.8587 37.3333C15.4068 39.8916 18.3004 41.1707 21.5396 41.1707C23.1807 41.1707 24.6059 40.8672 25.8152 40.2602C27.0245 39.6098 27.6291 38.4173 27.6291 36.6829C27.6291 33.6911 25.2754 30.5041 20.5678 27.122C19.7904 26.6016 19.0562 26.168 18.3652 25.8211C16.5513 24.8238 14.9965 23.8482 13.7009 22.8943C12.4052 21.9404 11.2607 20.6829 10.2674 19.122C9.27406 17.561 8.77739 15.7398 8.77739 13.6585C8.77739 11.0569 9.57638 8.71545 11.1743 6.63415C12.8155 4.55284 14.759 2.92683 17.0048 1.75609C19.2938 0.585365 21.2804 0 22.9648 0Z" fill="#296A89"/>
<path d="M39.6604 36.4297C39.4081 37.03 38.82 37.3547 38.3474 37.1551C37.8748 36.9554 37.6911 36.3068 37.9433 35.7065C38.1955 35.1062 38.7822 34.785 39.2562 34.9811C39.7288 35.1807 39.9126 35.8294 39.6604 36.4297Z" fill="white"/>
<path d="M38.2893 37.2946C37.7376 37.0643 37.5192 36.3233 37.8021 35.6435C38.085 34.9637 38.7651 34.6039 39.3204 34.8356C39.8721 35.0659 40.0905 35.8069 39.8076 36.4867C39.5247 37.1666 38.8446 37.5263 38.2893 37.2946ZM39.2003 35.1256C38.8054 34.9602 38.3071 35.245 38.0892 35.7672C37.8726 36.2857 38.0167 36.8442 38.4116 37.0096C38.8065 37.175 39.3048 36.8903 39.5228 36.3681C39.7393 35.8496 39.5952 35.2911 39.2003 35.1256Z" fill="#296A89"/>
<path d="M38.0628 39.5518C37.8106 40.1521 37.2238 40.4733 36.7498 40.2772C36.2772 40.0776 36.0935 39.4289 36.3457 38.8286C36.5979 38.2283 37.186 37.9035 37.6586 38.1032C38.1312 38.3029 38.315 38.9515 38.0628 39.5518Z" fill="white"/>
<path d="M36.6918 40.4168C36.14 40.1864 35.9217 39.4455 36.2046 38.7656C36.4875 38.0858 37.1676 37.7261 37.7229 37.9578C38.2746 38.1881 38.493 38.9291 38.2101 39.6089C37.9272 40.2887 37.2471 40.6484 36.6918 40.4168ZM37.6028 38.2478C37.2079 38.0824 36.7096 38.3671 36.4916 38.8893C36.2751 39.4078 36.4192 39.9663 36.8141 40.1318C37.209 40.2972 37.7073 40.0124 37.9252 39.4902C38.1418 38.9717 37.9977 38.4132 37.6028 38.2478Z" fill="#296A89"/>
<path d="M35.0091 42.2517C34.7569 42.852 34.1486 43.1648 33.6509 42.9554C33.1531 42.746 32.9514 42.0904 33.2 41.4887C33.4522 40.8884 34.0605 40.5756 34.5583 40.785C35.056 40.9945 35.2577 41.6501 35.0091 42.2517Z" fill="white"/>
<path d="M33.5902 43.1022C33.0147 42.8585 32.7748 42.1092 33.0562 41.433C33.3391 40.7532 34.0408 40.4018 34.6163 40.6455C35.1918 40.8891 35.4317 41.6385 35.1466 42.3133C34.8637 42.9931 34.162 43.3445 33.5866 43.1008L33.5902 43.1022ZM34.5011 40.9332C34.0811 40.7581 33.5612 41.0345 33.3447 41.553C33.1281 42.0716 33.2902 42.637 33.7125 42.8172C34.1325 42.9924 34.6524 42.7159 34.869 42.1974C35.0855 41.6789 34.9234 41.1134 34.5011 40.9332Z" fill="#296A89"/>
<path d="M30.3078 43.6987C30.0654 44.2736 29.4691 44.5661 28.9677 44.3553C28.4699 44.1459 28.2577 43.507 28.4987 42.9356C28.7412 42.3607 29.3375 42.0682 29.8389 42.279C30.3366 42.4884 30.5489 43.1273 30.3078 43.6987Z" fill="white"/>
<path d="M28.9083 44.4984C28.3328 44.2548 28.0845 43.5271 28.3562 42.8762C28.6279 42.2254 29.3227 41.892 29.8981 42.1357C30.4736 42.3794 30.7219 43.107 30.4502 43.7579C30.1784 44.4088 29.4837 44.7421 28.9083 44.4984ZM29.7808 42.4185C29.3607 42.2433 28.8528 42.4994 28.646 42.9927C28.4393 43.4859 28.6133 44.0311 29.032 44.2098C29.452 44.385 29.9599 44.1289 30.1667 43.6356C30.3735 43.1424 30.1995 42.5972 29.7808 42.4185Z" fill="#296A89"/>
<path d="M26.1358 45.4212C25.8934 45.9962 25.2971 46.2887 24.7957 46.0779C24.2979 45.8684 24.0857 45.2295 24.3267 44.6582C24.5692 44.0832 25.1655 43.7907 25.6669 44.0015C26.1646 44.2109 26.3769 44.8498 26.1358 45.4212Z" fill="white"/>
<path d="M24.7364 46.221C24.1609 45.9774 23.9126 45.2497 24.1843 44.5988C24.4561 43.948 25.1508 43.6146 25.7262 43.8583C26.3017 44.102 26.55 44.8296 26.2783 45.4805C26.0066 46.1314 25.3119 46.4647 24.7364 46.221ZM25.6089 44.1411C25.1888 43.9659 24.6809 44.222 24.4742 44.7153C24.2674 45.2085 24.4414 45.7537 24.8601 45.9324C25.2802 46.1076 25.7881 45.8515 25.9948 45.3582C26.2016 44.865 26.0276 44.3198 25.6089 44.1411Z" fill="#296A89"/>
<path d="M27.6288 31.4315C27.8995 31.3942 28.1661 31.4427 28.4271 31.5028C28.6882 31.5629 28.9437 31.6346 29.1995 31.7235C29.7054 31.9014 30.1896 32.1486 30.6122 32.4949C30.7179 32.5829 30.818 32.6769 30.9122 32.771C31.0064 32.8594 31.0948 32.9536 31.1946 33.0361C31.3829 33.2129 31.5769 33.3838 31.7708 33.5547C32.1586 33.8908 32.575 34.2145 32.9849 34.4984L32.721 34.8785C32.2759 34.5614 31.8821 34.2141 31.4939 33.8552C31.2997 33.6729 31.1113 33.4904 30.9284 33.2963C30.8342 33.2022 30.7457 33.1079 30.6571 33.0079C30.5685 32.9079 30.486 32.8248 30.3918 32.7364C30.0214 32.3998 29.5829 32.1283 29.1111 31.9264C28.8724 31.8255 28.6281 31.7363 28.3784 31.6644C28.1286 31.5925 27.8735 31.5379 27.6232 31.4374L27.6288 31.4315Z" fill="#296A89"/>
<path d="M30.1847 34.9169C30.1847 34.9169 33.5311 34.3066 34.5618 34.1409C36.0106 33.9087 37.7194 34.1593 38.6617 34.9936C39.5658 35.7881 39.0878 36.5665 38.76 36.506C38.3124 36.424 37.8943 35.5478 36.2931 35.4468C34.6919 35.3459 32.2733 36.1535 31.4424 36.0477C30.8308 35.4163 30.1819 34.9241 30.1819 34.9241L30.1847 34.9169Z" fill="white"/>
<path d="M31.3726 36.1871L31.3343 36.1473C30.7378 35.5299 30.0998 35.0419 30.0926 35.0391L29.8112 34.8262L30.1584 34.7614C30.1941 34.7544 33.5181 34.1482 34.5365 33.982C35.893 33.7641 37.7241 33.9543 38.7626 34.8716C39.3761 35.4125 39.42 35.9736 39.2533 36.3202C39.1384 36.554 38.9293 36.689 38.7321 36.6541C38.5506 36.6212 38.3918 36.4973 38.1941 36.346C37.8223 36.0566 37.3141 35.6603 36.2811 35.5966C35.4136 35.5429 34.3012 35.7599 33.3181 35.9522C32.5137 36.1099 31.8164 36.2468 31.4235 36.1943L31.369 36.1857L31.3726 36.1871ZM30.5505 35.0088C30.7888 35.205 31.1544 35.521 31.5149 35.8933C31.876 35.921 32.5511 35.788 33.2619 35.648C34.2635 35.4504 35.3981 35.2296 36.3057 35.2863C37.4347 35.3582 38.0065 35.8039 38.3876 36.1011C38.5536 36.2277 38.6793 36.3304 38.7919 36.3491C38.8306 36.3558 38.9182 36.3108 38.9777 36.1885C39.0955 35.9475 39.0467 35.5382 38.5633 35.11C37.6007 34.2637 35.875 34.0894 34.5899 34.2935C33.7659 34.4269 31.4294 34.8509 30.5541 35.0102L30.5505 35.0088Z" fill="#296A89"/>
<path d="M34.8481 34.9211C34.5566 35.045 34.256 35.1279 33.9568 35.2073C33.6562 35.2903 33.3592 35.3747 33.063 35.4677C32.9168 35.5149 32.7669 35.5607 32.6242 35.6092C32.5521 35.6353 32.4801 35.6614 32.4094 35.6839L32.1941 35.7709C32.0436 35.8289 31.8887 35.8769 31.7331 35.9163C31.6552 35.936 31.5752 35.9507 31.4951 35.9654C31.4115 35.9787 31.3378 35.9876 31.2412 35.9917L31.2379 35.6789C31.3002 35.6781 31.3789 35.667 31.4489 35.6567C31.5226 35.6479 31.5941 35.634 31.6669 35.6165C31.8112 35.5852 31.9561 35.5416 32.0974 35.4966L32.3207 35.4211C32.3964 35.3964 32.4706 35.3753 32.5499 35.352C32.702 35.3112 32.854 35.2704 33.0047 35.2332C33.3097 35.1602 33.6141 35.0995 33.9199 35.0352C34.2243 34.9744 34.5309 34.9187 34.8495 34.9175L34.8481 34.9211Z" fill="#296A89"/>
<path d="M36.8989 35.074C37.0897 35.1147 37.2703 35.1929 37.443 35.2806C37.6171 35.3646 37.7921 35.4573 37.9579 35.563C38.1236 35.6687 38.2866 35.7817 38.4376 35.9149C38.5887 36.0482 38.7277 36.2017 38.8399 36.3822L38.5702 36.5352C38.4898 36.3795 38.3781 36.2407 38.2578 36.1028C38.1325 35.967 37.9895 35.8452 37.8464 35.7234C37.702 35.6051 37.5462 35.495 37.384 35.3906C37.2254 35.2877 37.0605 35.1906 36.9025 35.0754L36.8989 35.074Z" fill="#296A89"/>
<path d="M26.6192 35.0177C26.6192 35.0177 26.42 34.1357 27.2655 33.83C27.8621 33.6158 28.3595 33.6981 28.3595 33.6981C28.9904 33.9752 32.4319 36.648 32.9797 38.0244C32.3564 38.6246 31.6377 38.7466 31.6377 38.7466C31.2446 38.051 28.8536 35.4378 27.9423 35.1094C27.236 34.8562 26.625 35.0158 26.625 35.0158L26.6192 35.0177Z" fill="white"/>
<path d="M31.542 38.9317L31.47 38.8017C31.0646 38.0848 28.7079 35.5536 27.891 35.2574C27.2569 35.028 26.7039 35.1692 26.6981 35.171L26.4833 35.2267L26.4387 35.0255C26.4289 34.985 26.2247 34.0233 27.1758 33.681C27.8128 33.454 28.3497 33.5395 28.3702 33.5392L28.3995 33.5424L28.426 33.5527C29.0688 33.8386 32.5719 36.524 33.1558 37.9923L33.1886 38.0786L33.1258 38.136C32.4771 38.763 31.7295 38.8941 31.6961 38.9015L31.5434 38.9281L31.542 38.9317ZM28.0316 34.985C28.9839 35.3786 31.1369 37.7125 31.7108 38.5599C31.9283 38.4972 32.3624 38.3345 32.7666 37.9723C32.1471 36.6495 28.9632 34.1654 28.3211 33.8512C28.2142 33.8383 27.8162 33.8148 27.3558 33.9796C26.8535 34.1608 26.778 34.5809 26.7799 34.8268C27.0451 34.7988 27.4905 34.7917 27.9873 34.9679C28.0006 34.973 28.0183 34.9799 28.0316 34.985Z" fill="#296A89"/>
<path d="M29.0137 34.8395C28.8402 34.818 28.6948 34.7451 28.5397 34.6974C28.3859 34.6462 28.2316 34.6072 28.0731 34.5791C27.9182 34.5523 27.7619 34.5291 27.6058 34.5268C27.4533 34.5259 27.3024 34.5422 27.1617 34.575L27.092 34.2739C27.2706 34.2392 27.4502 34.234 27.6251 34.2519C27.7986 34.2734 27.9651 34.313 28.1274 34.3634C28.2883 34.4174 28.4437 34.4859 28.5941 34.5565C28.743 34.6308 28.897 34.7029 29.0087 34.8417L29.0137 34.8395Z" fill="#296A89"/>
<path d="M29.3381 36.2117L28.1522 37.4758C28.1522 37.4758 30.8293 37.3041 33.8121 38.4923C36.7949 39.6806 37.3146 39.8112 37.4174 39.3735C37.5215 38.9321 37.3655 38.3194 36.0067 37.8472C34.6516 37.3764 31.3504 36.1355 29.3367 36.2153L29.3381 36.2117Z" fill="white"/>
<path d="M27.7688 37.6556L29.2684 36.0602L29.3321 36.0558C31.2063 35.9842 34.1187 37.0124 35.686 37.5653C35.8239 37.6146 35.9475 37.6583 36.0603 37.6978C37.5247 38.2067 37.6875 38.9093 37.5695 39.4077C37.5359 39.5483 37.4654 39.6456 37.3564 39.703C37.0261 39.8741 36.3883 39.6853 33.7528 38.6356C30.8346 37.4724 28.1852 37.6258 28.1594 37.6283L27.7688 37.6556ZM29.4062 36.3669L28.5162 37.3138C29.3632 37.3137 31.5364 37.4202 33.8665 38.3516C35.6638 39.0683 36.9555 39.5644 37.2133 39.4316C37.2246 39.4236 37.2496 39.4125 37.2653 39.3397C37.4271 38.6631 36.6423 38.2346 35.9546 37.9932C35.8418 37.9537 35.7146 37.9086 35.5766 37.8593C34.0503 37.3181 31.2206 36.322 29.4026 36.3655L29.4062 36.3669Z" fill="#296A89"/>
<path d="M35.2715 37.9849C35.4839 38.0339 35.6866 38.1083 35.8886 38.1948C36.0871 38.28 36.2878 38.3702 36.4793 38.4734C36.6708 38.5766 36.8632 38.6885 37.0435 38.8206C37.2239 38.9527 37.3937 39.1015 37.546 39.2851L37.2966 39.4709C37.1861 39.3077 37.0393 39.1636 36.886 39.0254C36.7328 38.8872 36.5582 38.7614 36.3859 38.6407C36.2099 38.5186 36.0284 38.4109 35.8418 38.3054L35.2773 37.9913L35.2715 37.9849Z" fill="#296A89"/>
<path d="M29.1045 38.3409C29.1045 38.3409 27.8453 36.379 26.7107 36.3217C25.5774 36.2607 25.1797 36.8418 25.2329 37.1323C25.9294 36.9868 27.3209 37.7706 27.611 38.1322C27.8998 38.4974 29.1045 38.3409 29.1045 38.3409Z" fill="white"/>
<path d="M25.1095 37.3129L25.0792 37.1558C25.0481 36.9901 25.1162 36.7922 25.2597 36.6235C25.4252 36.4301 25.8393 36.117 26.7146 36.1612C27.9136 36.2228 29.1785 38.1706 29.2294 38.2526L29.3634 38.4623L29.1203 38.4928C28.903 38.5207 27.8138 38.6346 27.4845 38.2246C27.2277 37.905 25.8938 37.1433 25.2588 37.2794L25.1059 37.3115L25.1095 37.3129ZM26.4292 37.2011C27.0116 37.4475 27.5589 37.8173 27.7294 38.0287C27.8629 38.1967 28.3859 38.2332 28.8252 38.2082C28.4684 37.7086 27.5273 36.5176 26.7021 36.472C25.9292 36.4302 25.5999 36.7055 25.4952 36.8269C25.4578 36.8705 25.4289 36.9133 25.4135 36.9531C25.7163 36.9499 26.0811 37.0538 26.4328 37.2025L26.4292 37.2011Z" fill="#296A89"/>
<path d="M27.1189 37.0405C27.2854 37.0801 27.4344 37.1544 27.577 37.2345C27.7246 37.3124 27.8658 37.3962 28.0078 37.4886C28.1498 37.5809 28.284 37.6828 28.4127 37.799C28.5414 37.9153 28.6644 38.046 28.755 38.2182L28.4729 38.3498C28.4215 38.2261 28.3286 38.1029 28.2242 37.9877C28.1213 37.8689 28.0057 37.7619 27.885 37.657C27.7643 37.5521 27.6387 37.4495 27.5066 37.3526C27.3746 37.2558 27.2412 37.1626 27.1211 37.0455L27.1189 37.0405Z" fill="#296A89"/>
<path d="M27.3585 38.1512L25.7734 38.9617C25.7734 38.9617 28.8193 39.4726 30.0833 40.0617C31.3473 40.6508 33.5055 42.2631 33.8437 42.3608C34.1819 42.4586 34.7412 42.4758 34.3662 41.3921C33.9875 40.307 31.4806 38.6137 29.9167 38.3735C28.3528 38.1334 27.3585 38.1512 27.3585 38.1512Z" fill="white"/>
<path d="M25.2853 39.0386L27.3183 37.9987L27.3549 38.0004C27.3964 37.9998 28.382 37.9828 29.9409 38.2252C31.5558 38.4726 34.1199 40.2214 34.5125 41.3451C34.6963 41.8648 34.6928 42.2164 34.5051 42.4137C34.3572 42.5723 34.1127 42.6064 33.801 42.5148C33.6445 42.4708 33.2826 42.231 32.5955 41.7739C31.7737 41.2272 30.7471 40.5473 30.019 40.2073C28.7873 39.6306 25.7766 39.1251 25.7451 39.1212L25.2839 39.0423L25.2853 39.0386ZM30.0089 39.8587C30.0592 39.8781 30.1046 39.8999 30.1499 39.9216C30.9031 40.2714 31.9355 40.9577 32.7668 41.5121C33.2599 41.8401 33.7696 42.1787 33.8852 42.211C34.0705 42.2661 34.2186 42.257 34.2766 42.1923C34.3191 42.1465 34.4039 41.98 34.215 41.4417C33.8578 40.4189 31.3919 38.758 29.8875 38.5243C28.5186 38.314 27.5771 38.3024 27.3903 38.3048L26.2481 38.8882C27.1117 39.0482 28.9742 39.4248 30.0017 39.8559L30.0089 39.8587Z" fill="#296A89"/>
<path d="M31.5201 39.8293C31.1092 39.6951 30.7209 39.524 30.3191 39.3767C29.9174 39.2295 29.5151 39.0945 29.1058 38.9775C28.6966 38.8606 28.2839 38.7631 27.8709 38.6987C27.4587 38.6429 27.0345 38.6074 26.6438 38.6886L26.584 38.3831C26.8105 38.3421 27.0389 38.3392 27.2616 38.3507C27.483 38.3658 27.7002 38.3918 27.9154 38.4336C28.3458 38.5172 28.7622 38.6369 29.1717 38.7747C29.5798 38.9161 29.9824 39.0719 30.3757 39.2409C30.7677 39.4134 31.1646 39.5837 31.5265 39.8235L31.5201 39.8293Z" fill="#296A89"/>
<path d="M32.4106 40.5269C32.5425 40.6776 32.6545 40.8373 32.7664 40.997C32.8784 41.1566 32.9917 41.3127 33.1164 41.4607C33.2411 41.6087 33.3622 41.7553 33.4975 41.8866C33.6328 42.0179 33.7722 42.1384 33.9243 42.2263L33.7638 42.4923L33.6304 42.3991C33.5892 42.3666 33.5494 42.3304 33.5083 42.2978C33.4671 42.2653 33.4324 42.2269 33.3976 42.1885C33.3614 42.1537 33.3266 42.1153 33.2933 42.0733C33.1578 41.9212 33.0386 41.7587 32.9309 41.5882C32.8217 41.4213 32.7239 41.2464 32.6298 41.0728C32.537 40.8956 32.4541 40.714 32.4062 40.5168L32.4106 40.5269Z" fill="#296A89"/>
<path d="M28.5438 40.3066L27.1523 40.9472C27.1523 40.9472 23.7548 38.5103 22.2977 38.6894C22.711 37.9608 23.2562 37.6611 24.2127 37.9983C25.1655 38.334 27.7223 40.1338 28.5438 40.3066Z" fill="white"/>
<path d="M27.1328 41.1265L27.0621 41.0742C27.0304 41.0494 23.6957 38.6743 22.3158 38.8459L22.0077 38.8844L22.1609 38.6156C22.6516 37.7508 23.2999 37.516 24.2599 37.8545C24.7147 38.014 25.4834 38.4737 26.2997 38.96C27.2132 39.5048 28.1526 40.0679 28.5731 40.156L29.0358 40.2521L27.1328 41.1265ZM23.9467 38.9126C25.3079 39.4854 26.8107 40.5159 27.1684 40.7665L28.1267 40.3278C27.6197 40.1107 26.8985 39.6778 26.1428 39.2273C25.3777 38.7691 24.5852 38.2961 24.1591 38.1477C23.4427 37.8952 22.97 38.007 22.586 38.5311C22.9801 38.5591 23.4563 38.7061 23.9503 38.914L23.9467 38.9126Z" fill="#296A89"/>
<path d="M25.734 39.3223C25.9175 39.4141 26.0713 39.5401 26.2315 39.6603C26.3917 39.7805 26.5547 39.8934 26.7177 40.0064C26.8807 40.1193 27.0465 40.225 27.215 40.3235C27.38 40.4206 27.5549 40.5133 27.7165 40.5551L27.6301 40.8539C27.5762 40.833 27.5223 40.8121 27.472 40.7926C27.423 40.7695 27.3755 40.7428 27.3266 40.7197L27.1926 40.6388C27.15 40.6098 27.1075 40.5809 27.0649 40.552C26.8962 40.4326 26.7374 40.3088 26.5849 40.1792C26.4339 40.046 26.2829 39.9127 26.1382 39.7737C25.9936 39.6346 25.844 39.4977 25.734 39.3223Z" fill="#296A89"/>
<path d="M24.2409 39.6799L21.7415 40.5475C21.7415 40.5475 23.3128 40.3296 25.3736 41.3269C27.433 42.3279 27.912 43.5598 28.805 43.7188C29.6958 43.8727 30.2674 43.7618 29.5171 42.7404C28.7632 41.7176 26.3428 39.7463 24.2459 39.6776L24.2409 39.6799Z" fill="white"/>
<path d="M28.4964 43.7904C28.1664 43.6501 27.8779 43.3806 27.5309 43.0593C27.024 42.5848 26.3907 41.999 25.3056 41.4708C23.3188 40.5063 21.7766 40.7023 21.763 40.7053L21.6933 40.4042L24.2213 39.5269L24.2493 39.5294C26.3548 39.5972 28.8411 41.5692 29.6407 42.6554C29.9981 43.1426 30.1018 43.4735 29.9603 43.7011C29.8146 43.9395 29.4507 43.9938 28.7802 43.8795C28.6833 43.8627 28.5907 43.8352 28.5022 43.7967L28.4964 43.7904ZM25.0027 40.9923C25.1451 41.0515 25.2897 41.1158 25.4386 41.1901C26.5691 41.74 27.2466 42.372 27.7396 42.8287C28.159 43.2195 28.4626 43.5032 28.827 43.5654C29.5349 43.69 29.6675 43.5711 29.6914 43.5305C29.7062 43.503 29.7661 43.3476 29.387 42.8312C28.6215 41.7956 26.2614 39.9141 24.2639 39.8341L22.6604 40.3925C23.2437 40.444 24.0578 40.5931 25.0041 40.9886L25.0027 40.9923Z" fill="#296A89"/>
<path d="M25.827 40.8588C25.5607 40.7889 25.3155 40.6856 25.0661 40.5932C24.8154 40.5044 24.5604 40.4265 24.3048 40.3607C24.0479 40.2986 23.7904 40.2487 23.5317 40.2233C23.273 40.1979 23.0131 40.1969 22.7606 40.2196L22.7316 39.9094C23.0134 39.8856 23.297 39.8999 23.5709 39.9395C23.8456 39.9878 24.1111 40.0491 24.3719 40.1334C24.6313 40.2214 24.8864 40.3202 25.1311 40.4357C25.3771 40.5475 25.6225 40.6716 25.827 40.8588Z" fill="#296A89"/>
<path d="M27.6754 42.2764C27.939 42.557 28.2153 42.826 28.5086 43.0725C28.6552 43.1957 28.806 43.3081 28.961 43.4097C29.1124 43.5099 29.2838 43.6011 29.4315 43.6251L29.3559 43.9281C29.1325 43.8541 28.9715 43.7253 28.819 43.5956C28.6666 43.466 28.5305 43.3261 28.3995 43.1839C28.1387 42.896 27.8971 42.5906 27.6754 42.2764Z" fill="#296A89"/>
<path d="M23.8617 42.1222C23.8617 42.1222 21.7002 40.7536 21.1807 40.162C20.6611 39.5704 19.9803 39.1614 19.2049 39.5007C18.4295 39.84 18.0418 40.1383 17.9398 40.3812C18.6406 40.1709 19.2503 40.0042 19.8624 40.752C20.5288 41.5625 21.2561 42.0227 21.7048 42.2089C22.1535 42.3951 22.4597 42.6507 22.4597 42.6507L23.8617 42.1222Z" fill="white"/>
<path d="M22.4293 42.8263L22.36 42.7703C22.36 42.7703 22.0617 42.5261 21.6418 42.3509C21.4038 42.2504 20.564 41.8463 19.7417 40.8508C19.2065 40.2032 18.7244 40.3072 17.9814 40.5303L17.6682 40.6249L17.7938 40.3206C17.9209 40.0126 18.3657 39.6948 19.141 39.3555C19.8714 39.0362 20.6164 39.2791 21.2954 40.0571C21.794 40.6282 23.9187 41.9745 23.9411 41.9914L24.2027 42.1592L22.4243 42.8285L22.4293 42.8263ZM19.3412 40.1433C19.554 40.234 19.7698 40.3923 19.9808 40.6485C20.7582 41.5892 21.5418 41.9675 21.7619 42.0611C22.1027 42.2055 22.3652 42.382 22.4842 42.4696L23.5132 42.0832C22.9156 41.6939 21.4845 40.745 21.0599 40.2608C20.47 39.5837 19.865 39.3743 19.2592 39.6381C18.8616 39.8121 18.5969 39.9629 18.4177 40.0846C18.7221 40.0239 19.0277 40.0135 19.334 40.1405L19.3412 40.1433Z" fill="#296A89"/>
<path d="M21.4469 41.0335C21.612 41.1515 21.7645 41.2811 21.9133 41.4094C22.0657 41.539 22.2146 41.6672 22.3698 41.7897C22.525 41.9121 22.6802 42.0345 22.8396 42.146L22.9601 42.2301L23.0797 42.3055C23.12 42.3294 23.1618 42.3497 23.2021 42.3737C23.2425 42.3976 23.2812 42.4043 23.3179 42.4268L23.2064 42.7159C23.1553 42.6878 23.1014 42.6669 23.0552 42.6366C23.0091 42.6062 22.9616 42.5795 22.9204 42.547L22.7956 42.4529L22.6771 42.3531C22.5225 42.2184 22.3764 42.083 22.2346 41.9367C22.0927 41.7903 21.958 41.6468 21.8212 41.4983C21.6879 41.3511 21.5574 41.1968 21.446 41.0249L21.4469 41.0335Z" fill="#296A89"/>
<path d="M19.4662 41.3808L17.7958 41.9091C17.7958 41.9091 19.8834 42.323 21.9981 43.5446C24.1128 44.7663 25.2689 45.9241 25.5448 45.2626C25.8206 44.6012 25.1502 43.7478 24.195 43.2575C23.2399 42.7673 20.8326 41.3617 19.4662 41.3808Z" fill="white"/>
<path d="M24.8944 45.5134C24.5787 45.3787 24.1707 45.1086 23.6372 44.7567C23.17 44.4471 22.5882 44.0598 21.9184 43.6759C19.8512 42.4809 17.7858 42.0632 17.7628 42.0584L17.1681 41.9403L19.4407 41.2215L19.4615 41.2212C20.6776 41.2063 22.6243 42.2425 23.7892 42.8638C23.9713 42.9592 24.1318 43.0463 24.2628 43.1137C25.2216 43.6053 26.0172 44.5197 25.6848 45.317C25.6269 45.4565 25.5347 45.5454 25.4084 45.5837C25.2671 45.6287 25.0979 45.5964 24.8908 45.512L24.8944 45.5134ZM20.4482 42.6041C20.9673 42.8217 21.5221 43.0864 22.0753 43.4086C22.7509 43.7989 23.3363 44.1875 23.8106 44.4999C24.5048 44.9598 25.1068 45.359 25.3223 45.2929C25.3359 45.2899 25.373 45.2793 25.4023 45.2035C25.6244 44.6707 25.062 43.8799 24.1248 43.3966C23.9902 43.3278 23.8296 43.2407 23.6439 43.1439C22.5885 42.5816 20.6288 41.5362 19.4891 41.5351L18.3702 41.8867C18.8498 42.0142 19.5953 42.2448 20.4446 42.6027L20.4482 42.6041Z" fill="#296A89"/>
<path d="M23.141 43.3432C23.3899 43.394 23.6208 43.4917 23.8502 43.593C24.0783 43.6979 24.3049 43.8064 24.5238 43.9244C24.7462 44.0438 24.9595 44.1762 25.1695 44.3281C25.2733 44.4015 25.373 44.4858 25.4713 44.5737L25.6109 44.715C25.6523 44.7683 25.6959 44.8267 25.7372 44.8801L25.4741 45.0482C25.3598 44.8627 25.1834 44.6989 24.9992 44.5445C24.815 44.3901 24.6131 44.2497 24.4098 44.1128C24.2065 43.9759 23.9954 43.8485 23.7793 43.7233C23.5654 43.6031 23.3479 43.4815 23.1402 43.3346L23.141 43.3432Z" fill="#296A89"/>
<path d="M17.3887 42.8379C17.0678 42.8133 16.7689 42.71 16.4596 42.6443C16.1532 42.5713 15.8489 42.5033 15.5419 42.4426C15.2348 42.3818 14.9264 42.3247 14.6182 42.2884C14.4641 42.2702 14.3136 42.2535 14.1625 42.2489C14.0114 42.2444 13.8611 42.2485 13.7353 42.2745L13.667 41.9699C13.8506 41.933 14.0175 41.9395 14.1794 41.9482C14.3434 41.9619 14.5011 41.9814 14.6596 42.0096C14.9767 42.0659 15.2831 42.1389 15.5918 42.2169C15.899 42.2985 16.2021 42.3909 16.5038 42.487C16.8041 42.5866 17.1127 42.6646 17.3879 42.8293L17.3887 42.8379Z" fill="#296A89"/>
</g>
</g>
<defs>
<clipPath id="clip0_223_1936">
<rect width="48" height="48" fill="white"/>
</clipPath>
<clipPath id="clip1_223_1936">
<rect width="32.3265" height="48" fill="white" transform="translate(8)"/>
</clipPath>
</defs>
</svg>
