<svg width="305" height="27" viewBox="0 0 305 27" fill="none" xmlns="http://www.w3.org/2000/svg">
<path d="M24.6052 24.8436L15.8864 25.9686L14.8317 21.9959H10.8239L9.94501 25.9686L0.980164 25.0897L7.97626 1.6756L17.7497 1.18341L24.6052 24.8436ZM14.1989 16.617L12.863 10.4998L11.5622 16.617H14.1989ZM45.5759 9.40997C45.5759 10.324 45.4938 11.1561 45.3298 11.9061C45.1774 12.6443 44.9313 13.324 44.5915 13.9451C44.2516 14.5662 43.8122 15.1404 43.2731 15.6678C42.7341 16.1951 42.0837 16.699 41.322 17.1795L45.5056 24.6326L37.5954 26.1795L34.8884 18.6912L32.7087 18.7615L32.3923 26.074H24.8337C24.8923 23.4022 24.945 20.742 24.9919 18.0936C25.0505 15.4451 25.1149 12.785 25.1852 10.1131C25.2087 8.76544 25.2321 7.4295 25.2556 6.10529C25.279 4.78107 25.3259 3.44513 25.3962 2.09747C26.2165 1.79279 27.0251 1.54083 27.822 1.34161C28.6188 1.1424 29.4157 0.990051 30.2126 0.884583C31.0212 0.767395 31.8356 0.691223 32.6559 0.656067C33.488 0.609192 34.3376 0.585754 35.2048 0.585754C36.5407 0.585754 37.8298 0.773254 39.072 1.14825C40.3259 1.51154 41.4333 2.06232 42.3942 2.8006C43.3552 3.53888 44.1227 4.4588 44.697 5.56036C45.2829 6.66193 45.5759 7.94513 45.5759 9.40997ZM37.7009 9.97247C37.7009 9.48029 37.6306 9.02911 37.4899 8.61896C37.361 8.2088 37.1618 7.85724 36.8923 7.56427C36.6345 7.25958 36.3063 7.02521 35.9079 6.86115C35.5212 6.68536 35.0641 6.59747 34.5368 6.59747C34.3024 6.59747 34.0739 6.61505 33.8513 6.65021C33.6286 6.67365 33.4118 6.71466 33.2009 6.77325L32.9196 13.3123H33.3415C33.8454 13.3123 34.3552 13.2479 34.8708 13.119C35.3981 12.9901 35.8669 12.7908 36.277 12.5213C36.6989 12.2518 37.0388 11.9061 37.2966 11.4842C37.5661 11.0623 37.7009 10.5584 37.7009 9.97247ZM65.4216 1.57013L65.2458 9.02325L60.0075 9.23419L59.3747 25.5467L51.9567 25.9334L51.2888 9.62091L46.0505 9.90216L46.2614 1.60529L65.4216 1.57013ZM98.1345 1.95685L94.0212 26.3201L84.0368 26.5311L81.8923 13.91L79.7477 25.617L69.7634 25.9686L65.6149 1.95685L74.3337 1.18341L76.0915 15.7733L78.447 1.18341H85.3024L88.0446 15.949L89.4509 1.18341L98.1345 1.95685ZM120.019 24.8436L111.3 25.9686L110.246 21.9959H106.238L105.359 25.9686L96.3942 25.0897L103.39 1.6756L113.164 1.18341L120.019 24.8436ZM109.613 16.617L108.277 10.4998L106.976 16.617H109.613ZM135.804 17.0389L135.066 24.8436L120.265 26.0037L120.828 0.902161H129.968L128.668 17.0389H135.804ZM158.234 3.64435L150.465 12.8904L157.601 24.9842L149.445 26.4256L144.101 19.1834L143.82 26.074L136.508 26.3553L137.07 1.18341L145.261 1.64044L144.629 8.88263L149.726 1.53497L158.234 3.64435ZM183.353 17.0037C183.353 18.6092 183.072 20.0154 182.509 21.2225C181.959 22.4178 181.197 23.4139 180.224 24.2108C179.263 25.0076 178.133 25.6053 176.832 26.0037C175.543 26.4022 174.154 26.6014 172.666 26.6014C172.091 26.6014 171.459 26.5252 170.767 26.3729C170.088 26.2205 169.396 26.033 168.693 25.8104C167.99 25.576 167.31 25.3299 166.654 25.0721C166.009 24.8026 165.435 24.5506 164.931 24.3162L165.705 17.074C166.701 17.6717 167.802 18.1287 169.009 18.4451C170.228 18.7498 171.424 18.9022 172.595 18.9022C172.818 18.9022 173.088 18.8963 173.404 18.8846C173.72 18.8611 174.019 18.8084 174.3 18.7264C174.593 18.6326 174.84 18.4979 175.039 18.3221C175.238 18.1463 175.338 17.8943 175.338 17.5662C175.338 17.3436 175.267 17.1561 175.127 17.0037C174.986 16.8397 174.804 16.7108 174.582 16.617C174.359 16.5115 174.107 16.4354 173.826 16.3885C173.545 16.3299 173.269 16.2889 173 16.2654C172.73 16.242 172.478 16.2303 172.244 16.2303C172.009 16.2303 171.822 16.2303 171.681 16.2303C170.674 16.2303 169.754 16.0545 168.922 15.7029C168.101 15.3514 167.392 14.8651 166.795 14.244C166.209 13.6111 165.752 12.867 165.424 12.0115C165.095 11.1443 164.931 10.2068 164.931 9.19904C164.931 7.81622 165.207 6.5799 165.758 5.49005C166.32 4.38849 167.064 3.45685 167.99 2.69513C168.927 1.92169 170 1.3299 171.207 0.919739C172.414 0.509583 173.662 0.304504 174.951 0.304504C175.525 0.304504 176.117 0.327942 176.726 0.374817C177.336 0.409973 177.939 0.480286 178.537 0.585754C179.146 0.691223 179.738 0.825989 180.312 0.990051C180.886 1.15411 181.431 1.35919 181.947 1.60529L181.279 8.742C180.482 8.47247 179.644 8.24982 178.765 8.07404C177.898 7.88654 177.049 7.79279 176.216 7.79279C176.064 7.79279 175.865 7.79865 175.619 7.81036C175.384 7.81036 175.133 7.82794 174.863 7.8631C174.605 7.88654 174.341 7.92755 174.072 7.98615C173.802 8.04474 173.562 8.12677 173.351 8.23224C173.14 8.32599 172.97 8.4549 172.841 8.61896C172.713 8.78302 172.654 8.97638 172.666 9.19904C172.677 9.45685 172.771 9.66779 172.947 9.83185C173.134 9.98419 173.369 10.1072 173.65 10.201C173.943 10.283 174.259 10.3416 174.599 10.3768C174.951 10.4119 175.297 10.4354 175.636 10.4471C175.976 10.4471 176.293 10.4471 176.586 10.4471C176.879 10.4354 177.119 10.4412 177.306 10.4647C178.244 10.5233 179.088 10.7225 179.838 11.0623C180.588 11.4022 181.22 11.8533 181.736 12.4158C182.263 12.9783 182.662 13.6522 182.931 14.4373C183.213 15.2108 183.353 16.0662 183.353 17.0037ZM205.343 25.6522L196.554 26.074L196.484 18.6561H192.441L192.195 26.3553H184.32L184.988 1.64044L193.355 2.02716L192.828 14.6483H196.73L196.765 1.4295L204.781 1.64044L205.343 25.6522ZM228.74 12.8904C228.74 13.9568 228.617 14.9881 228.371 15.9842C228.125 16.9686 227.767 17.8943 227.299 18.7615C226.841 19.6287 226.279 20.4256 225.611 21.1522C224.955 21.867 224.211 22.4822 223.379 22.9979C222.558 23.5135 221.662 23.9178 220.689 24.2108C219.716 24.492 218.685 24.6326 217.595 24.6326C216.541 24.6326 215.533 24.4979 214.572 24.2283C213.623 23.9588 212.732 23.5838 211.9 23.1033C211.068 22.6111 210.312 22.0252 209.633 21.3455C208.965 20.6541 208.39 19.8924 207.91 19.0604C207.441 18.2166 207.072 17.3143 206.802 16.3533C206.545 15.3924 206.416 14.3904 206.416 13.3475C206.416 12.3279 206.539 11.3318 206.785 10.3592C207.031 9.37482 207.383 8.44904 207.84 7.58185C208.308 6.71466 208.871 5.91779 209.527 5.19122C210.183 4.46466 210.916 3.83771 211.724 3.31036C212.545 2.78302 213.429 2.37286 214.379 2.0799C215.328 1.78693 216.33 1.64044 217.384 1.64044C219.084 1.64044 220.631 1.90411 222.025 2.43146C223.431 2.9588 224.627 3.71466 225.611 4.69904C226.607 5.67169 227.375 6.85529 227.914 8.24982C228.465 9.63263 228.74 11.1795 228.74 12.8904ZM220.935 13.3475C220.935 12.8436 220.859 12.3572 220.707 11.8885C220.566 11.408 220.355 10.9861 220.074 10.6229C219.793 10.2479 219.441 9.94904 219.019 9.72638C218.609 9.492 218.134 9.37482 217.595 9.37482C217.045 9.37482 216.552 9.47443 216.119 9.67365C215.685 9.87286 215.31 10.1483 214.994 10.4998C214.689 10.8397 214.455 11.244 214.291 11.7127C214.127 12.1697 214.045 12.6561 214.045 13.1717C214.045 13.6639 214.115 14.1561 214.256 14.6483C214.396 15.1404 214.607 15.5858 214.888 15.9842C215.17 16.3826 215.515 16.7049 215.925 16.951C216.347 17.1971 216.834 17.3201 217.384 17.3201C217.935 17.3201 218.427 17.2147 218.861 17.0037C219.306 16.7811 219.681 16.4881 219.986 16.1248C220.291 15.7498 220.525 15.3221 220.689 14.8416C220.853 14.3611 220.935 13.8631 220.935 13.3475ZM249.588 12.1522C249.588 13.1717 249.517 14.1912 249.377 15.2108C247.373 15.3397 245.381 15.5506 243.4 15.8436C241.42 16.1248 239.439 16.4061 237.459 16.6873C237.763 17.5311 238.238 18.2049 238.883 18.7088C239.539 19.2127 240.318 19.4647 241.22 19.4647C241.689 19.4647 242.199 19.3768 242.75 19.201C243.312 19.0252 243.869 18.8084 244.42 18.5506C244.97 18.2811 245.498 17.994 246.002 17.6893C246.506 17.3846 246.939 17.1092 247.302 16.8631L246.459 24.8436C246.002 25.1951 245.504 25.494 244.965 25.7401C244.437 25.9861 243.886 26.1854 243.312 26.3377C242.738 26.4901 242.158 26.6014 241.572 26.6717C240.986 26.742 240.412 26.7772 239.849 26.7772C238.689 26.7772 237.629 26.619 236.668 26.3026C235.707 25.9861 234.834 25.5467 234.049 24.9842C233.275 24.41 232.595 23.7361 232.009 22.9627C231.424 22.1893 230.937 21.3455 230.55 20.4315C230.164 19.5174 229.871 18.5506 229.672 17.5311C229.472 16.5115 229.373 15.4803 229.373 14.4373C229.373 13.3475 229.472 12.2576 229.672 11.1678C229.871 10.0779 230.17 9.02911 230.568 8.0213C230.978 7.01349 231.488 6.08185 232.097 5.22638C232.718 4.35919 233.439 3.60333 234.259 2.9588C235.08 2.31427 236.006 1.81036 237.037 1.44708C238.08 1.0838 239.228 0.902161 240.482 0.902161C241.525 0.902161 242.474 1.04865 243.33 1.34161C244.197 1.62286 244.965 2.0213 245.633 2.53693C246.312 3.04083 246.898 3.64435 247.39 4.34747C247.894 5.0506 248.304 5.82404 248.621 6.66779C248.949 7.49982 249.189 8.38458 249.341 9.32208C249.506 10.2479 249.588 11.1912 249.588 12.1522ZM242.556 11.2381C242.556 10.91 242.521 10.576 242.451 10.2361C242.381 9.88458 242.263 9.56818 242.099 9.28693C241.947 9.00568 241.742 8.77716 241.484 8.60138C241.226 8.41388 240.904 8.32013 240.517 8.32013C240.049 8.32013 239.633 8.44904 239.269 8.70685C238.918 8.95294 238.613 9.26935 238.355 9.65607C238.097 10.0311 237.886 10.4412 237.722 10.8865C237.558 11.3318 237.435 11.742 237.353 12.117L242.556 11.6248V11.2381ZM275.199 1.64044L274.215 9.05841C273.875 8.96466 273.535 8.90021 273.195 8.86505C272.855 8.8299 272.515 8.81232 272.175 8.81232C271.308 8.81232 270.482 8.9295 269.697 9.16388C268.912 9.38654 268.215 9.73224 267.605 10.201C267.008 10.6697 266.527 11.2557 266.164 11.9588C265.812 12.6619 265.636 13.4881 265.636 14.4373C265.636 15.0467 265.73 15.574 265.918 16.0193C266.117 16.4647 266.392 16.8338 266.744 17.1268C267.095 17.4197 267.511 17.6365 267.992 17.7772C268.472 17.9178 269 17.9881 269.574 17.9881C270.008 17.9881 270.459 17.9412 270.927 17.8475C271.396 17.7537 271.859 17.6307 272.316 17.4783C272.773 17.326 273.218 17.1502 273.652 16.951C274.086 16.7518 274.484 16.5467 274.847 16.3358L274.144 24.5975C273.687 24.8318 273.189 25.0428 272.65 25.2303C272.123 25.4061 271.578 25.5643 271.015 25.7049C270.453 25.8338 269.89 25.9334 269.328 26.0037C268.765 26.074 268.226 26.1092 267.711 26.1092C266.222 26.1092 264.834 25.8338 263.545 25.283C262.256 24.7322 261.136 23.9764 260.187 23.0154C259.238 22.0545 258.488 20.9236 257.937 19.6229C257.398 18.3104 257.129 16.8983 257.129 15.3865C257.129 13.3826 257.416 11.4959 257.99 9.72638C258.564 7.94513 259.408 6.38654 260.521 5.0506C261.634 3.71466 263.011 2.65997 264.652 1.88654C266.304 1.1131 268.203 0.726379 270.347 0.726379C271.156 0.726379 271.982 0.790833 272.826 0.919739C273.681 1.04865 274.472 1.28888 275.199 1.64044ZM297.752 12.8904C297.752 13.9568 297.629 14.9881 297.383 15.9842C297.136 16.9686 296.779 17.8943 296.31 18.7615C295.853 19.6287 295.291 20.4256 294.623 21.1522C293.966 21.867 293.222 22.4822 292.39 22.9979C291.57 23.5135 290.674 23.9178 289.701 24.2108C288.728 24.492 287.697 24.6326 286.607 24.6326C285.552 24.6326 284.545 24.4979 283.584 24.2283C282.634 23.9588 281.744 23.5838 280.912 23.1033C280.08 22.6111 279.324 22.0252 278.644 21.3455C277.976 20.6541 277.402 19.8924 276.922 19.0604C276.453 18.2166 276.084 17.3143 275.814 16.3533C275.556 15.3924 275.427 14.3904 275.427 13.3475C275.427 12.3279 275.55 11.3318 275.797 10.3592C276.043 9.37482 276.394 8.44904 276.851 7.58185C277.32 6.71466 277.883 5.91779 278.539 5.19122C279.195 4.46466 279.927 3.83771 280.736 3.31036C281.556 2.78302 282.441 2.37286 283.39 2.0799C284.34 1.78693 285.341 1.64044 286.396 1.64044C288.095 1.64044 289.642 1.90411 291.037 2.43146C292.443 2.9588 293.638 3.71466 294.623 4.69904C295.619 5.67169 296.386 6.85529 296.925 8.24982C297.476 9.63263 297.752 11.1795 297.752 12.8904ZM289.947 13.3475C289.947 12.8436 289.871 12.3572 289.718 11.8885C289.578 11.408 289.367 10.9861 289.086 10.6229C288.804 10.2479 288.453 9.94904 288.031 9.72638C287.621 9.492 287.146 9.37482 286.607 9.37482C286.056 9.37482 285.564 9.47443 285.131 9.67365C284.697 9.87286 284.322 10.1483 284.006 10.4998C283.701 10.8397 283.466 11.244 283.302 11.7127C283.138 12.1697 283.056 12.6561 283.056 13.1717C283.056 13.6639 283.127 14.1561 283.267 14.6483C283.408 15.1404 283.619 15.5858 283.9 15.9842C284.181 16.3826 284.527 16.7049 284.937 16.951C285.359 17.1971 285.845 17.3201 286.396 17.3201C286.947 17.3201 287.439 17.2147 287.873 17.0037C288.318 16.7811 288.693 16.4881 288.998 16.1248C289.302 15.7498 289.537 15.3221 289.701 14.8416C289.865 14.3611 289.947 13.8631 289.947 13.3475ZM304.976 22.7342C304.976 23.2498 304.877 23.7303 304.677 24.1756C304.478 24.6209 304.209 25.0135 303.869 25.3533C303.541 25.6815 303.154 25.9451 302.709 26.1443C302.263 26.3318 301.789 26.4256 301.285 26.4256C300.769 26.4256 300.289 26.3318 299.843 26.1443C299.398 25.9451 299.006 25.6815 298.666 25.3533C298.338 25.0135 298.074 24.6209 297.875 24.1756C297.687 23.7303 297.593 23.2498 297.593 22.7342C297.593 22.2303 297.687 21.7498 297.875 21.2928C298.074 20.8358 298.338 20.4432 298.666 20.1151C299.006 19.7752 299.398 19.5057 299.843 19.3065C300.289 19.1072 300.769 19.0076 301.285 19.0076C301.789 19.0076 302.263 19.1072 302.709 19.3065C303.154 19.5057 303.541 19.7752 303.869 20.1151C304.209 20.4432 304.478 20.8358 304.677 21.2928C304.877 21.7498 304.976 22.2303 304.976 22.7342Z" fill="#296A89"/>
</svg>
